# xmcd
# Copyright (C) 1995-1998 Ti Kan
#
# Track frame offsets:
#       150
#       14808
#       32911
#       58053
#       76812
#       88551
#       102863
#       128910
#       144158
#       157158
#       173812
#       187513
#       203571
#       219948
#       241936
#       254516
#       267051
#       283759
#       299830
#       322775
#
# Disc length: 4565 seconds
#
# Revision: 0
# Processed by: cddbd v1.5.2PL0 Copyright (c) Steve Scherf et al.
# Submitted via: CD-Transfer v1.0
#
DISCID=1a11d314
DTITLE=Kallooo - 
DYEAR=1900
DGENRE=
TTITLE0=From The Ritz To The Rubble
TTITLE1=Get Down
TTITLE2=The Magnificent Seven
TTITLE3=Gib Niemals Auf!
TTITLE4=Big Shot
TTITLE5=Ob-La-Di, Ob-La-Da
TTITLE6=Shine Eye Gal
TTITLE7=Banquet
TTITLE8=Dread Beat An' Blood
TTITLE9=Crunchy
TTITLE10=The Distance
TTITLE11=One More Time
TTITLE12=One More Dub
TTITLE13=Lightning Strikes (Not Once, But Twice)
TTITLE14=Big Six
TTITLE15=Como Me Pongo
TTITLE16=El Autentico
TTITLE17=Fk 10
TTITLE18=What It's Like
TTITLE19=Big Up Papa
EXTD=
EXTT0=
EXTT1=
EXTT2=
EXTT3=
EXTT4=
EXTT5=
EXTT6=
EXTT7=
EXTT8=
EXTT9=
EXTT10=
EXTT11=
EXTT12=
EXTT13=
EXTT14=
EXTT15=
EXTT16=
EXTT17=
EXTT18=
EXTT19=
PLAYORDER=
